<svg height="512pt" viewBox="0 0 512.002 512" width="512pt" xmlns="http://www.w3.org/2000/svg"><path d="m281.535156 512h-239.964844c-22.957031 0-41.570312-18.609375-41.570312-41.570312v-428.855469c0-22.960938 18.613281-41.574219 41.570312-41.574219h239.964844c22.957032 0 41.570313 18.613281 41.570313 41.574219v428.851562c.003906 22.964844-18.609375 41.574219-41.570313 41.574219zm0 0" fill="#6770e6"/><path d="m281.535156 0h-239.964844c-22.957031 0-41.570312 18.613281-41.570312 41.574219v14c0-22.960938 18.613281-41.574219 41.570312-41.574219h239.964844c22.957032 0 41.570313 18.613281 41.570313 41.574219v-14c.003906-22.960938-18.609375-41.574219-41.570313-41.574219zm0 0" fill="#8f95e6"/><path d="m41.570312 512h239.964844c22.957032 0 41.570313-18.609375 41.570313-41.570312v-14c0 22.960937-18.613281 41.570312-41.570313 41.570312h-239.964844c-22.957031 0-41.570312-18.609375-41.570312-41.570312v14c0 22.960937 18.613281 41.570312 41.570312 41.570312zm0 0" fill="#5861c7"/><path d="m41.570312 492c-11.890624 0-21.570312-9.675781-21.570312-21.570312v-402.855469c0-11.894531 9.679688-21.574219 21.570312-21.574219h239.964844c11.894532 0 21.570313 9.679688 21.570313 21.574219v402.855469c0 11.894531-9.675781 21.570312-21.570313 21.570312zm0 0" fill="#a1f1fc"/><path d="m202.828125 31.828125h-112.546875c-4.972656 0-9-4.027344-9-9 0-4.96875 4.027344-9 9-9h112.546875c4.96875 0 9 4.03125 9 9 0 4.972656-4.03125 9-9 9zm0 0" fill="#5861c7"/><path d="m241.828125 22.828125c0 4.972656-4.03125 9-9 9s-9-4.027344-9-9c0-4.96875 4.03125-9 9-9s9 4.03125 9 9zm0 0" fill="#5861c7"/><path d="m259.671875 354.117188-41.847656-13.75h-112.414063l-41.953125 13.761718c-16.503906 5.410156-27.660156 20.8125-27.660156 38.183594v99.273438h251.511719v-99.289063c.003906-17.363281-11.144532-32.757813-27.636719-38.179687zm0 0" fill="#5fd4e3"/><path d="m121.316406 322.410156h80.472656v34.042969h-80.472656zm0 0" fill="#5fd4e3"/><path d="m175.480469 390.5h-27.855469l-6.1875-34.046875h40.234375zm0 0" fill="#6770e6"/><path d="m93.460938 344.074219 40.238281 43.332031 27.855469-30.953125-40.238282-34.042969zm0 0" fill="#69ebfc"/><path d="m182.957031 491.589844-7.476562-101.089844h-27.855469l-7.472656 101.089844zm0 0" fill="#5861c7"/><path d="m207.238281 157.777344c-1.9375-7.503906-10.222656-18.140625-41.609375-18.140625-48.488281 0-55.394531 7.179687-68.300781-5.222657-10.886719-10.464843-17.28125 39.894532-2.761719 55.886719-6.128906 22.648438-1.226562 45.335938-1.226562 45.335938h136.429687s11.449219-52.992188-22.53125-77.859375zm0 0" fill="#339"/><path d="m97.328125 146.859375c12.90625 12.402344 19.808594 5.222656 68.300781 5.222656 31.386719 0 39.671875 10.636719 41.609375 18.144531 18.03125 13.191407 23.269531 34.304688 24.214844 51.21875.941406-17.492187-1.359375-46.941406-24.214844-63.664062-1.9375-7.507812-10.222656-18.144531-41.609375-18.144531-48.488281 0-55.394531 7.179687-68.300781-5.21875-7.171875-6.894531-12.390625 12.597656-10.972656 31.277343 1.039062-13.679687 5.421875-24.171874 10.972656-18.835937zm0 0" fill="#5861c7"/><g fill="#ffe4d1"><path d="m192.476562 288.371094h-61.847656v41.917968l30.925782 26.164063 30.949218-26.1875zm0 0"/><path d="m107.117188 238.019531s-5.882813-10.773437-17.644532-10.773437c-11.761718 0-20.097656 51.714844 17.644532 43.09375zm0 0"/><path d="m215.992188 238.019531s5.882812-10.773437 17.644531-10.773437 20.09375 51.714844-17.644531 43.09375zm0 0"/></g><path d="m161.554688 168.71875c-90.121094 0-72.890626 147.804688 0 147.804688 72.890624 0 90.121093-147.804688 0-147.804688zm0 0" fill="#ffefe4"/><path d="m160.90625 160.542969s-61.011719-8.605469-61.011719 69.675781c0 0 7.679688-32.359375 25.304688-41.183594 8.207031-4.109375 11.214843 6.304688 35.707031 6.304688s27.496094-10.414063 35.707031-6.304688c17.621094 8.824219 25.304688 41.183594 25.304688 41.183594 0-78.28125-61.011719-69.675781-61.011719-69.675781zm0 0" fill="#339"/><path d="m161.554688 160.671875s-61.296876-8.648437-61.296876 70.003906c0 0 7.714844-32.507812 25.425782-41.371093 8.246094-4.132813 11.265625 6.332031 35.871094 6.332031 24.605468 0 27.628906-10.460938 35.875-6.332031 17.707031 8.863281 25.425781 41.371093 25.425781 41.371093-.003907-78.652343-61.300781-70.003906-61.300781-70.003906zm0 0" fill="#339"/><path d="m229.644531 344.074219-40.234375 43.332031-27.855468-30.953125 40.234374-34.042969zm0 0" fill="#69ebfc"/><path d="m243.226562 281.015625h-19.351562c-1.835938 0-3.320312-1.484375-3.320312-3.320313v-56.894531c0-1.835937 1.484374-3.320312 3.320312-3.320312h19.351562c1.832032 0 3.320313 1.484375 3.320313 3.320312v56.894531c0 1.835938-1.488281 3.320313-3.320313 3.320313zm0 0" fill="#d476e2"/><path d="m245.96875 265.765625v-33.039063c5.613281 0 10.164062 4.550782 10.164062 10.167969v12.707031c0 5.617188-4.546874 10.164063-10.164062 10.164063zm0 0" fill="#b665c2"/><path d="m73.140625 265.765625c-5.613281 0-10.167969-4.550781-10.167969-10.164063v-12.707031c0-5.617187 4.554688-10.167969 10.167969-10.167969zm0 0" fill="#b665c2"/><path d="m95.8125 281.015625h-19.351562c-1.835938 0-3.320313-1.484375-3.320313-3.320313v-56.894531c0-1.835937 1.484375-3.320312 3.320313-3.320312h19.351562c1.832031 0 3.320312 1.484375 3.320312 3.320312v56.894531c0 1.835938-1.488281 3.320313-3.320312 3.320313zm0 0" fill="#d476e2"/><path d="m237.847656 217.476562h-9.175781c0-35.308593-28.726563-64.035156-64.035156-64.035156h-9.875c-35.3125 0-64.039063 28.726563-64.039063 64.035156h-9.175781c0-40.367187 32.84375-73.210937 73.210937-73.210937h9.878907c40.367187 0 73.210937 32.84375 73.210937 73.210937zm0 0" fill="#b665c2"/><path d="m228.675781 281.015625c0 18.492187-15.046875 33.539063-33.539062 33.539063h-4.730469c-1.425781-1.980469-3.746094-3.277344-6.375-3.277344h-11.769531c-4.339844 0-7.863281 3.523437-7.863281 7.867187s3.519531 7.863281 7.863281 7.863281h11.769531c2.625 0 4.949219-1.292968 6.375-3.277343h4.730469c23.550781 0 42.710937-19.160157 42.710937-42.710938h-9.171875zm0 0" fill="#b665c2"/><path d="m477.757812 61.589844h-175.066406c-18.910156 0-34.242187 15.332031-34.242187 34.246094v140.445312c0 18.910156 15.332031 34.242188 34.242187 34.242188h25.972656v36.105468c0 5.695313 6.886719 8.546875 10.914063 4.519532l40.625-40.625h97.554687c18.914063 0 34.246094-15.332032 34.246094-34.242188v-140.445312c-.003906-18.914063-15.335937-34.246094-34.246094-34.246094zm0 0" fill="#d476e2"/><path d="m302.691406 61.589844h175.066406c18.910157 0 34.242188 15.332031 34.242188 34.246094v14.316406c0-18.914063-15.332031-34.246094-34.242188-34.246094h-175.066406c-18.910156 0-34.242187 15.332031-34.242187 34.246094v-14.316406c0-18.914063 15.332031-34.246094 34.242187-34.246094zm0 0" fill="#ea82fa"/><path d="m348.503906 191.21875c0-1.898438.761719-3.722656 2.113282-5.054688 2.523437-2.488281 4.890624-4.835937 7.101562-7.046874 1.183594-1.183594 2.394531-2.394532 3.636719-3.636719 1.238281-1.238281 2.390625-2.394531 3.464843-3.464844 1.070313-1.070313 2.027344-2.042969 2.875-2.917969.84375-.871094 1.492188-1.5625 1.941407-2.070312.902343-1.070313 1.707031-2.027344 2.410156-2.875.707031-.84375 1.269531-1.675782 1.691406-2.492188s.746094-1.636718.972657-2.453125c.222656-.816406.335937-1.703125.335937-2.664062 0-1.859375-.734375-3.480469-2.195313-4.863281-1.46875-1.378907-3.46875-2.070313-6.003906-2.070313-1.863281 0-4.808594 1.066406-6.921875 3.632813-1.527343 1.855468-4.105469 2.464843-6.324219 1.546874-3.4375-1.414062-4.511718-5.742187-2.160156-8.621093.996094-1.222657 1.96875-2.148438 2.644532-2.6875 1.574218-1.269531 3.449218-2.3125 5.621093-3.128907 2.167969-.816406 4.605469-1.226562 7.3125-1.226562 2.929688 0 5.578125.4375 7.945313 1.308594 2.371094.875 4.371094 2.074218 6.003906 3.59375 1.632812 1.523437 2.902344 3.3125 3.804688 5.371094.902343 2.058593 1.351562 4.269531 1.351562 6.636718 0 3.609375-.886719 6.917969-2.664062 9.933594-1.773438 3.015625-3.929688 5.820312-6.46875 8.414062l-7.269532 7.269532c-1.914062 1.914062-4.085937 4.058594-6.507812 6.425781l.335937.507813h18.558594c2.683594 0 4.863281 2.175781 4.863281 4.859374 0 2.6875-2.175781 4.863282-4.863281 4.863282h-26.511719c-3.917968 0-7.09375-3.171875-7.09375-7.089844zm0 0" fill="#ffefe4"/><path d="m413.6875 193.152344v-5.496094h-19.847656c-3.792969 0-6.871094-3.074219-6.871094-6.867188 0-1.367187.40625-2.699218 1.167969-3.832031l22.207031-33.015625c1.453125-2.164062 3.890625-3.460937 6.5-3.460937 4.324219 0 7.832031 3.507812 7.832031 7.835937v29.027344h2.113281c2.847657 0 5.15625 2.308594 5.15625 5.15625s-2.308593 5.15625-5.15625 5.15625h-2.113281v5.496094c0 2.847656-2.308593 5.15625-5.15625 5.15625h-.675781c-2.851562 0-5.15625-2.308594-5.15625-5.15625zm0-36.183594h-.675781l-13.78125 20.375h14.457031zm0 0" fill="#ffefe4"/><path d="m390.222656 95.042969c-40.625 0-73.675781 33.050781-73.675781 73.675781 0 9.863281 1.914063 19.433594 5.695313 28.457031 1.066406 2.546875 3.992187 3.746094 6.546874 2.675781 2.542969-1.066406 3.746094-3.996093 2.675782-6.542968-3.261719-7.789063-4.917969-16.0625-4.917969-24.589844 0-35.113281 28.566406-63.675781 63.675781-63.675781 35.113282 0 63.679688 28.566406 63.679688 63.675781 0 35.113281-28.566406 63.679688-63.679688 63.679688-14.945312 0-29.011718-5.085938-40.355468-14.433594l13.378906.058594h.027344c2.75 0 4.988281-2.222657 5-4.976563.011718-2.761719-2.21875-5.011719-4.976563-5.023437l-24.773437-.109376c-.007813 0-.015626 0-.023438 0-2.753906 0-4.988281 2.222657-5 4.976563l-.113281 24.769531c-.011719 2.761719 2.21875 5.011719 4.976562 5.023438h.023438c2.753906 0 4.988281-2.222656 5-4.980469l.054687-12.074219c13.136719 10.855469 29.445313 16.765625 46.78125 16.765625 40.625 0 73.675782-33.054687 73.675782-73.679687s-33.046876-73.671875-73.675782-73.671875zm0 0" fill="#ffefe4"/></svg>